# xmcd
#
# Track frame offsets: 
#        150
#        33237
#        74062
#        95837
#        143710
#        249435
#        291307
#
# Disc length: 4398 seconds
#
# Revision: 3
# Processed by: cddbd v1.5.2PL0 Copyright (c) Steve Scherf et al.
# Submitted via: ExactAudioCopy v1.0b3
#
DISCID=6b112c07
DTITLE=Kyung Wha Chung, Simon Rattle, Wiener Philharmoniker - Beethove
DTITLE=n - Symphony No. 5, Brahms - Violin Concerto
DYEAR=2000
DGENRE=classic
TTITLE0=Sym No.5 - 1 - Allegro con brio
TTITLE1=Sym No.5 - 2 - Andante con moto
TTITLE2=Sym No.5 - 3 - Allegro
TTITLE3=Sym No.5 - 4 - Allegro =Presto
TTITLE4=Violinkonzert - 1 - Allegro non troppo
TTITLE5=Violinkonzert - 2 - Adagio
TTITLE6=Violinkonzert - 3 - Allegro giocoso, ma non troppo vivace
EXTD=YEAR: 2001
EXTT0=
EXTT1=
EXTT2=
EXTT3=
EXTT4=
EXTT5=
EXTT6=
PLAYORDER=
